<?xml version="1.0" standalone="no"?>
<!DOCTYPE svg PUBLIC "-//W3C//DTD SVG 20010904//EN"
 "http://www.w3.org/TR/2001/REC-SVG-20010904/DTD/svg10.dtd">
<svg version="1.0" xmlns="http://www.w3.org/2000/svg"
 width="765.000000pt" height="699.000000pt" viewBox="0 0 765.000000 699.000000"
 preserveAspectRatio="xMidYMid meet">

<g transform="translate(0.000000,699.000000) scale(0.100000,-0.100000)"
fill="#000000" stroke="none">
<path d="M2315 6841 c-237 -7 -249 -10 -305 -87 l-30 -42 0 -515 0 -514 -872
-6 c-480 -4 -891 -11 -912 -16 -57 -14 -116 -59 -151 -116 l-30 -48 -8 -1096
c-5 -603 -5 -1591 0 -2197 l8 -1101 30 -49 c46 -75 105 -109 200 -117 43 -4
1196 -7 2562 -7 2358 0 2483 1 2483 18 0 37 -14 41 -160 50 -203 12 -241 35
-248 145 -4 78 25 141 78 169 40 21 153 25 241 8 85 -16 83 -21 90 263 3 141
10 253 16 268 15 35 66 76 111 89 23 6 227 10 548 10 l512 0 0 -87 c0 -70 6
-108 30 -186 16 -53 27 -99 23 -101 -4 -3 -222 -59 -486 -125 -263 -66 -499
-131 -525 -144 -29 -15 -57 -40 -79 -72 -32 -48 -33 -53 -28 -125 2 -41 23
-155 46 -252 22 -97 41 -184 41 -192 0 -12 -11 -16 -42 -16 -106 -1 -229 -43
-278 -95 -27 -29 -31 -71 -16 -168 20 -131 146 -168 350 -103 l77 24 15 -29
c8 -17 23 -29 34 -29 34 0 1362 323 1520 370 112 33 108 18 60 225 -60 263
-187 776 -199 808 -11 27 -12 28 -70 21 -69 -7 -59 -22 -86 130 -9 49 -23 102
-31 117 l-14 27 65 7 65 7 0 1758 0 1757 -39 61 c-22 34 -61 76 -87 95 l-47
35 -904 7 -903 7 -1 262 c0 143 -4 381 -8 527 -7 249 -9 268 -30 302 -12 20
-35 40 -54 47 -17 6 -106 16 -197 20 -176 10 -2014 10 -2365 1z m1366 -1692
c803 -63 1506 -642 1699 -1400 50 -196 68 -502 40 -698 -58 -419 -271 -811
-598 -1104 -662 -595 -1657 -674 -2427 -194 -357 222 -652 596 -779 987 -68
211 -81 298 -81 560 0 250 9 319 60 497 193 672 772 1186 1493 1327 70 14 138
27 152 29 53 9 312 7 441 -4z m3059 -2775 c25 -10 48 -29 62 -53 21 -33 23
-48 23 -178 0 -78 -3 -145 -7 -149 -4 -4 -26 5 -48 20 -49 32 -116 35 -197 6
-31 -11 -59 -17 -63 -15 -12 7 -23 178 -15 234 17 124 125 183 245 135z"/>
<path d="M3290 4695 c-243 -33 -474 -120 -680 -256 -118 -78 -326 -282 -394
-387 -267 -413 -305 -872 -108 -1305 110 -240 365 -510 616 -650 335 -188 764
-244 1146 -151 333 80 641 282 846 553 88 117 197 338 229 464 123 489 -7 942
-372 1300 -255 251 -532 383 -906 432 -139 18 -246 18 -377 0z"/>
</g>
</svg>
